<?xml version="1.0" encoding="UTF-8" standalone="no"?>
<!DOCTYPE svg PUBLIC "-//W3C//DTD SVG 1.1//EN"
 "http://www.w3.org/Graphics/SVG/1.1/DTD/svg11.dtd">
<!-- Generated by graphviz version 2.47.0 (20210316.0004)
 -->
<!-- Title: dependencies Pages: 1 -->
<svg width="2938pt" height="284pt"
 viewBox="0.00 0.00 2938.00 284.00" xmlns="http://www.w3.org/2000/svg" xmlns:xlink="http://www.w3.org/1999/xlink">
<g id="graph0" class="graph" transform="scale(1 1) rotate(0) translate(4 280)">
<title>dependencies</title>
<polygon fill="white" stroke="transparent" points="-4,4 -4,-280 2934,-280 2934,4 -4,4"/>
<text text-anchor="start" x="1444.01" y="-42.4" font-family="Times-12" font-weight="bold" font-size="14.00">Legend</text>
<polygon fill="#ffffb3" stroke="transparent" points="1231,-10 1231,-30 1251,-30 1251,-10 1231,-10"/>
<text text-anchor="start" x="1254.63" y="-15.4" font-family="Times-12" font-size="14.00"> &#160;Declarations</text>
<polygon fill="#8dd3c7" stroke="transparent" points="1344,-10 1344,-30 1364,-30 1364,-10 1344,-10"/>
<text text-anchor="start" x="1367.73" y="-15.4" font-family="Times-12" font-size="14.00"> &#160;Module</text>
<polygon fill="#80b1d3" stroke="transparent" points="1430,-10 1430,-30 1450,-30 1450,-10 1430,-10"/>
<text text-anchor="start" x="1453.78" y="-15.4" font-family="Times-12" font-size="14.00"> &#160;Bootstrap</text>
<polygon fill="#fdb462" stroke="transparent" points="1527,-10 1527,-30 1547,-30 1547,-10 1527,-10"/>
<text text-anchor="start" x="1550.67" y="-15.4" font-family="Times-12" font-size="14.00"> &#160;Providers</text>
<polygon fill="#fb8072" stroke="transparent" points="1623,-10 1623,-30 1643,-30 1643,-10 1623,-10"/>
<text text-anchor="start" x="1646.73" y="-15.4" font-family="Times-12" font-size="14.00"> &#160;Exports</text>
<g id="clust1" class="cluster">
<title>cluster_SharedModule</title>
<polygon fill="none" stroke="black" stroke-dasharray="1,5" points="8,-70 8,-268 2922,-268 2922,-70 8,-70"/>
</g>
<g id="clust22" class="cluster">
<title>cluster_SharedModule_exports</title>
<polygon fill="none" stroke="black" points="16,-208 16,-260 2914,-260 2914,-208 16,-208"/>
</g>
<g id="clust2" class="cluster">
<title>cluster_SharedModule_declarations</title>
<polygon fill="none" stroke="black" points="32,-78 32,-130 2867,-130 2867,-78 32,-78"/>
</g>
<!-- BackgroundBlurDirective -->
<g id="node1" class="node">
<title>BackgroundBlurDirective</title>
<polygon fill="#ffffb3" stroke="black" points="2858.9,-122 2697.1,-122 2697.1,-86 2858.9,-86 2858.9,-122"/>
<text text-anchor="middle" x="2778" y="-99.8" font-family="Times,serif" font-size="14.00">BackgroundBlurDirective</text>
</g>
<!-- SharedModule -->
<g id="node19" class="node">
<title>SharedModule</title>
<polygon fill="#8dd3c7" stroke="black" points="1644.42,-187 1641.42,-191 1620.42,-191 1617.42,-187 1545.58,-187 1545.58,-151 1644.42,-151 1644.42,-187"/>
<text text-anchor="middle" x="1595" y="-164.8" font-family="Times,serif" font-size="14.00">SharedModule</text>
</g>
<!-- BackgroundBlurDirective&#45;&gt;SharedModule -->
<g id="edge1" class="edge">
<title>BackgroundBlurDirective&#45;&gt;SharedModule</title>
<path fill="none" stroke="black" d="M2710.41,-122.03C2710.41,-141.58 2710.41,-170 2710.41,-170 2710.41,-170 1654.37,-170 1654.37,-170"/>
<polygon fill="black" stroke="black" points="1654.37,-166.5 1644.37,-170 1654.37,-173.5 1654.37,-166.5"/>
</g>
<!-- IslandComponent -->
<g id="node2" class="node">
<title>IslandComponent</title>
<polygon fill="#ffffb3" stroke="black" points="2679.54,-122 2564.46,-122 2564.46,-86 2679.54,-86 2679.54,-122"/>
<text text-anchor="middle" x="2622" y="-99.8" font-family="Times,serif" font-size="14.00">IslandComponent</text>
</g>
<!-- IslandComponent&#45;&gt;SharedModule -->
<g id="edge2" class="edge">
<title>IslandComponent&#45;&gt;SharedModule</title>
<path fill="none" stroke="black" d="M2575.46,-122.11C2575.46,-141.34 2575.46,-169 2575.46,-169 2575.46,-169 1654.29,-169 1654.29,-169"/>
<polygon fill="black" stroke="black" points="1654.29,-165.5 1644.29,-169 1654.29,-172.5 1654.29,-165.5"/>
</g>
<!-- IslandFormComponent -->
<g id="node3" class="node">
<title>IslandFormComponent</title>
<polygon fill="#ffffb3" stroke="black" points="2545.88,-122 2400.12,-122 2400.12,-86 2545.88,-86 2545.88,-122"/>
<text text-anchor="middle" x="2473" y="-99.8" font-family="Times,serif" font-size="14.00">IslandFormComponent</text>
</g>
<!-- IslandFormComponent&#45;&gt;SharedModule -->
<g id="edge3" class="edge">
<title>IslandFormComponent&#45;&gt;SharedModule</title>
<path fill="none" stroke="black" d="M2409.84,-122.22C2409.84,-140.83 2409.84,-167 2409.84,-167 2409.84,-167 1654.44,-167 1654.44,-167"/>
<polygon fill="black" stroke="black" points="1654.44,-163.5 1644.44,-167 1654.44,-170.5 1654.44,-163.5"/>
</g>
<!-- LatestThreePipe -->
<g id="node4" class="node">
<title>LatestThreePipe</title>
<polygon fill="#ffffb3" stroke="black" points="2381.74,-122 2274.26,-122 2274.26,-86 2381.74,-86 2381.74,-122"/>
<text text-anchor="middle" x="2328" y="-99.8" font-family="Times,serif" font-size="14.00">LatestThreePipe</text>
</g>
<!-- LatestThreePipe&#45;&gt;SharedModule -->
<g id="edge4" class="edge">
<title>LatestThreePipe&#45;&gt;SharedModule</title>
<path fill="none" stroke="black" d="M2279.52,-122.02C2279.52,-139.37 2279.52,-163 2279.52,-163 2279.52,-163 1654.23,-163 1654.23,-163"/>
<polygon fill="black" stroke="black" points="1654.23,-159.5 1644.23,-163 1654.23,-166.5 1654.23,-159.5"/>
</g>
<!-- LatestThreePipe&#45;&gt;SharedModule -->
<g id="edge5" class="edge">
<title>LatestThreePipe&#45;&gt;SharedModule</title>
<path fill="none" stroke="black" d="M2284.91,-122.3C2284.91,-140.27 2284.91,-165 2284.91,-165 2284.91,-165 1654.34,-165 1654.34,-165"/>
<polygon fill="black" stroke="black" points="1654.34,-161.5 1644.34,-165 1654.34,-168.5 1654.34,-161.5"/>
</g>
<!-- LoanCompletedPipe -->
<g id="node5" class="node">
<title>LoanCompletedPipe</title>
<polygon fill="#ffffb3" stroke="black" points="2256.59,-122 2125.41,-122 2125.41,-86 2256.59,-86 2256.59,-122"/>
<text text-anchor="middle" x="2191" y="-99.8" font-family="Times,serif" font-size="14.00">LoanCompletedPipe</text>
</g>
<!-- LoanCompletedPipe&#45;&gt;SharedModule -->
<g id="edge6" class="edge">
<title>LoanCompletedPipe&#45;&gt;SharedModule</title>
<path fill="none" stroke="black" d="M2133.68,-122.04C2133.68,-138.73 2133.68,-161 2133.68,-161 2133.68,-161 1654.23,-161 1654.23,-161"/>
<polygon fill="black" stroke="black" points="1654.23,-157.5 1644.23,-161 1654.23,-164.5 1654.23,-157.5"/>
</g>
<!-- LoanCompletedPipe&#45;&gt;SharedModule -->
<g id="edge7" class="edge">
<title>LoanCompletedPipe&#45;&gt;SharedModule</title>
<path fill="none" stroke="black" d="M2129.57,-122.01C2129.57,-138.05 2129.57,-159 2129.57,-159 2129.57,-159 1654.33,-159 1654.33,-159"/>
<polygon fill="black" stroke="black" points="1654.33,-155.5 1644.33,-159 1654.33,-162.5 1654.33,-155.5"/>
</g>
<!-- LoanComponent -->
<g id="node6" class="node">
<title>LoanComponent</title>
<polygon fill="#ffffb3" stroke="black" points="2107.1,-122 1996.9,-122 1996.9,-86 2107.1,-86 2107.1,-122"/>
<text text-anchor="middle" x="2052" y="-99.8" font-family="Times,serif" font-size="14.00">LoanComponent</text>
</g>
<!-- LoanComponent&#45;&gt;SharedModule -->
<g id="edge8" class="edge">
<title>LoanComponent&#45;&gt;SharedModule</title>
<path fill="none" stroke="black" d="M2001.46,-122.24C2001.46,-137.57 2001.46,-157 2001.46,-157 2001.46,-157 1654.43,-157 1654.43,-157"/>
<polygon fill="black" stroke="black" points="1654.43,-153.5 1644.43,-157 1654.43,-160.5 1654.43,-153.5"/>
</g>
<!-- LoanFormComponent -->
<g id="node7" class="node">
<title>LoanFormComponent</title>
<polygon fill="#ffffb3" stroke="black" points="1979.43,-122 1838.57,-122 1838.57,-86 1979.43,-86 1979.43,-122"/>
<text text-anchor="middle" x="1909" y="-99.8" font-family="Times,serif" font-size="14.00">LoanFormComponent</text>
</g>
<!-- LoanFormComponent&#45;&gt;SharedModule -->
<g id="edge9" class="edge">
<title>LoanFormComponent&#45;&gt;SharedModule</title>
<path fill="none" stroke="black" d="M1852.83,-122.12C1852.83,-136.78 1852.83,-155 1852.83,-155 1852.83,-155 1654.41,-155 1654.41,-155"/>
<polygon fill="black" stroke="black" points="1654.41,-151.5 1644.41,-155 1654.41,-158.5 1654.41,-151.5"/>
</g>
<!-- LoanItemComponent -->
<g id="node8" class="node">
<title>LoanItemComponent</title>
<polygon fill="#ffffb3" stroke="black" points="1820.76,-122 1685.24,-122 1685.24,-86 1820.76,-86 1820.76,-122"/>
<text text-anchor="middle" x="1753" y="-99.8" font-family="Times,serif" font-size="14.00">LoanItemComponent</text>
</g>
<!-- LoanItemComponent&#45;&gt;SharedModule -->
<g id="edge10" class="edge">
<title>LoanItemComponent&#45;&gt;SharedModule</title>
<path fill="none" stroke="black" d="M1695.34,-122.25C1695.34,-136.18 1695.34,-153 1695.34,-153 1695.34,-153 1654.29,-153 1654.29,-153"/>
<polygon fill="black" stroke="black" points="1654.29,-149.5 1644.29,-153 1654.29,-156.5 1654.29,-149.5"/>
</g>
<!-- LoginFormComponent -->
<g id="node9" class="node">
<title>LoginFormComponent</title>
<polygon fill="#ffffb3" stroke="black" points="1667.61,-122 1522.39,-122 1522.39,-86 1667.61,-86 1667.61,-122"/>
<text text-anchor="middle" x="1595" y="-99.8" font-family="Times,serif" font-size="14.00">LoginFormComponent</text>
</g>
<!-- LoginFormComponent&#45;&gt;SharedModule -->
<g id="edge11" class="edge">
<title>LoginFormComponent&#45;&gt;SharedModule</title>
<path fill="none" stroke="black" d="M1595,-122.11C1595,-122.11 1595,-140.99 1595,-140.99"/>
<polygon fill="black" stroke="black" points="1591.5,-140.99 1595,-150.99 1598.5,-140.99 1591.5,-140.99"/>
</g>
<!-- PictureSelectableComponent -->
<g id="node10" class="node">
<title>PictureSelectableComponent</title>
<polygon fill="#ffffb3" stroke="black" points="1504.01,-122 1325.99,-122 1325.99,-86 1504.01,-86 1504.01,-122"/>
<text text-anchor="middle" x="1415" y="-99.8" font-family="Times,serif" font-size="14.00">PictureSelectableComponent</text>
</g>
<!-- PictureSelectableComponent&#45;&gt;SharedModule -->
<g id="edge12" class="edge">
<title>PictureSelectableComponent&#45;&gt;SharedModule</title>
<path fill="none" stroke="black" d="M1421.12,-122.25C1421.12,-136.18 1421.12,-153 1421.12,-153 1421.12,-153 1535.64,-153 1535.64,-153"/>
<polygon fill="black" stroke="black" points="1535.64,-156.5 1545.64,-153 1535.64,-149.5 1535.64,-156.5"/>
</g>
<!-- ProgressDirective -->
<g id="node11" class="node">
<title>ProgressDirective</title>
<polygon fill="#ffffb3" stroke="black" points="1308.29,-122 1191.71,-122 1191.71,-86 1308.29,-86 1308.29,-122"/>
<text text-anchor="middle" x="1250" y="-99.8" font-family="Times,serif" font-size="14.00">ProgressDirective</text>
</g>
<!-- ProgressDirective&#45;&gt;SharedModule -->
<g id="edge13" class="edge">
<title>ProgressDirective&#45;&gt;SharedModule</title>
<path fill="none" stroke="black" d="M1236.12,-122.24C1236.12,-137.57 1236.12,-157 1236.12,-157 1236.12,-157 1535.48,-157 1535.48,-157"/>
<polygon fill="black" stroke="black" points="1535.48,-160.5 1545.48,-157 1535.48,-153.5 1535.48,-160.5"/>
</g>
<!-- ProgressDirective&#45;&gt;SharedModule -->
<g id="edge14" class="edge">
<title>ProgressDirective&#45;&gt;SharedModule</title>
<path fill="none" stroke="black" d="M1272.13,-122.12C1272.13,-136.78 1272.13,-155 1272.13,-155 1272.13,-155 1535.61,-155 1535.61,-155"/>
<polygon fill="black" stroke="black" points="1535.61,-158.5 1545.61,-155 1535.61,-151.5 1535.61,-158.5"/>
</g>
<!-- RegisterFormComponent -->
<g id="node12" class="node">
<title>RegisterFormComponent</title>
<polygon fill="#ffffb3" stroke="black" points="1174.32,-122 1015.68,-122 1015.68,-86 1174.32,-86 1174.32,-122"/>
<text text-anchor="middle" x="1095" y="-99.8" font-family="Times,serif" font-size="14.00">RegisterFormComponent</text>
</g>
<!-- RegisterFormComponent&#45;&gt;SharedModule -->
<g id="edge15" class="edge">
<title>RegisterFormComponent&#45;&gt;SharedModule</title>
<path fill="none" stroke="black" d="M1097.12,-122.01C1097.12,-138.05 1097.12,-159 1097.12,-159 1097.12,-159 1535.44,-159 1535.44,-159"/>
<polygon fill="black" stroke="black" points="1535.44,-162.5 1545.44,-159 1535.44,-155.5 1535.44,-162.5"/>
</g>
<!-- UserCardComponent -->
<g id="node13" class="node">
<title>UserCardComponent</title>
<polygon fill="#ffffb3" stroke="black" points="997.47,-122 862.53,-122 862.53,-86 997.47,-86 997.47,-122"/>
<text text-anchor="middle" x="930" y="-99.8" font-family="Times,serif" font-size="14.00">UserCardComponent</text>
</g>
<!-- UserCardComponent&#45;&gt;SharedModule -->
<g id="edge16" class="edge">
<title>UserCardComponent&#45;&gt;SharedModule</title>
<path fill="none" stroke="black" d="M908.34,-122.03C908.34,-138.4 908.34,-160 908.34,-160 908.34,-160 1535.62,-160 1535.62,-160"/>
<polygon fill="black" stroke="black" points="1535.62,-163.5 1545.62,-160 1535.62,-156.5 1535.62,-163.5"/>
</g>
<!-- UserFormComponent -->
<g id="node14" class="node">
<title>UserFormComponent</title>
<polygon fill="#ffffb3" stroke="black" points="844.09,-122 705.91,-122 705.91,-86 844.09,-86 844.09,-122"/>
<text text-anchor="middle" x="775" y="-99.8" font-family="Times,serif" font-size="14.00">UserFormComponent</text>
</g>
<!-- UserFormComponent&#45;&gt;SharedModule -->
<g id="edge17" class="edge">
<title>UserFormComponent&#45;&gt;SharedModule</title>
<path fill="none" stroke="black" d="M798.02,-122.03C798.02,-139.06 798.02,-162 798.02,-162 798.02,-162 1535.75,-162 1535.75,-162"/>
<polygon fill="black" stroke="black" points="1535.75,-165.5 1545.75,-162 1535.75,-158.5 1535.75,-165.5"/>
</g>
<!-- UserListComponent -->
<g id="node15" class="node">
<title>UserListComponent</title>
<polygon fill="#ffffb3" stroke="black" points="687.54,-122 558.46,-122 558.46,-86 687.54,-86 687.54,-122"/>
<text text-anchor="middle" x="623" y="-99.8" font-family="Times,serif" font-size="14.00">UserListComponent</text>
</g>
<!-- UserListComponent&#45;&gt;SharedModule -->
<g id="edge18" class="edge">
<title>UserListComponent&#45;&gt;SharedModule</title>
<path fill="none" stroke="black" d="M643.76,-122C643.76,-139.68 643.76,-164 643.76,-164 643.76,-164 1535.53,-164 1535.53,-164"/>
<polygon fill="black" stroke="black" points="1535.53,-167.5 1545.53,-164 1535.53,-160.5 1535.53,-167.5"/>
</g>
<!-- VillagerComponent -->
<g id="node16" class="node">
<title>VillagerComponent</title>
<polygon fill="#ffffb3" stroke="black" points="540.7,-122 413.3,-122 413.3,-86 540.7,-86 540.7,-122"/>
<text text-anchor="middle" x="477" y="-99.8" font-family="Times,serif" font-size="14.00">VillagerComponent</text>
</g>
<!-- VillagerComponent&#45;&gt;SharedModule -->
<g id="edge19" class="edge">
<title>VillagerComponent&#45;&gt;SharedModule</title>
<path fill="none" stroke="black" d="M494.7,-122.27C494.7,-140.56 494.7,-166 494.7,-166 494.7,-166 1535.58,-166 1535.58,-166"/>
<polygon fill="black" stroke="black" points="1535.58,-169.5 1545.58,-166 1535.58,-162.5 1535.58,-169.5"/>
</g>
<!-- VillagerItemComponent -->
<g id="node17" class="node">
<title>VillagerItemComponent</title>
<polygon fill="#ffffb3" stroke="black" points="395.36,-122 242.64,-122 242.64,-86 395.36,-86 395.36,-122"/>
<text text-anchor="middle" x="319" y="-99.8" font-family="Times,serif" font-size="14.00">VillagerItemComponent</text>
</g>
<!-- VillagerItemComponent&#45;&gt;SharedModule -->
<g id="edge20" class="edge">
<title>VillagerItemComponent&#45;&gt;SharedModule</title>
<path fill="none" stroke="black" d="M390.8,-122.17C390.8,-141.09 390.8,-168 390.8,-168 390.8,-168 1535.55,-168 1535.55,-168"/>
<polygon fill="black" stroke="black" points="1535.55,-171.5 1545.55,-168 1535.55,-164.5 1535.55,-171.5"/>
</g>
<!-- VillagerSelectableComponent -->
<g id="node18" class="node">
<title>VillagerSelectableComponent</title>
<polygon fill="#ffffb3" stroke="black" points="224.23,-122 39.77,-122 39.77,-86 224.23,-86 224.23,-122"/>
<text text-anchor="middle" x="132" y="-99.8" font-family="Times,serif" font-size="14.00">VillagerSelectableComponent</text>
</g>
<!-- VillagerSelectableComponent&#45;&gt;SharedModule -->
<g id="edge21" class="edge">
<title>VillagerSelectableComponent&#45;&gt;SharedModule</title>
<path fill="none" stroke="black" d="M218.24,-122.11C218.24,-141.34 218.24,-169 218.24,-169 218.24,-169 1535.59,-169 1535.59,-169"/>
<polygon fill="black" stroke="black" points="1535.59,-172.5 1545.59,-169 1535.59,-165.5 1535.59,-172.5"/>
</g>
<!-- BackgroundBlurDirective  -->
<g id="node20" class="node">
<title>BackgroundBlurDirective </title>
<polygon fill="#fb8072" stroke="black" points="2906.4,-252 2741.6,-252 2741.6,-216 2906.4,-216 2906.4,-252"/>
<text text-anchor="middle" x="2824" y="-229.8" font-family="Times,serif" font-size="14.00">BackgroundBlurDirective </text>
</g>
<!-- SharedModule&#45;&gt;BackgroundBlurDirective  -->
<g id="edge22" class="edge">
<title>SharedModule&#45;&gt;BackgroundBlurDirective </title>
<path fill="none" stroke="black" stroke-dasharray="5,2" d="M1644.49,-172C1871.26,-172 2800.12,-172 2800.12,-172 2800.12,-172 2800.12,-205.73 2800.12,-205.73"/>
<polygon fill="black" stroke="black" points="2796.63,-205.73 2800.12,-215.73 2803.63,-205.73 2796.63,-205.73"/>
</g>
<!-- IslandComponent  -->
<g id="node21" class="node">
<title>IslandComponent </title>
<polygon fill="#fb8072" stroke="black" points="2723.54,-252 2604.46,-252 2604.46,-216 2723.54,-216 2723.54,-252"/>
<text text-anchor="middle" x="2664" y="-229.8" font-family="Times,serif" font-size="14.00">IslandComponent </text>
</g>
<!-- SharedModule&#45;&gt;IslandComponent  -->
<g id="edge23" class="edge">
<title>SharedModule&#45;&gt;IslandComponent </title>
<path fill="none" stroke="black" stroke-dasharray="5,2" d="M1644.45,-174C1852.01,-174 2642.12,-174 2642.12,-174 2642.12,-174 2642.12,-206 2642.12,-206"/>
<polygon fill="black" stroke="black" points="2638.63,-206 2642.12,-216 2645.63,-206 2638.63,-206"/>
</g>
<!-- IslandFormComponent  -->
<g id="node22" class="node">
<title>IslandFormComponent </title>
<polygon fill="#fb8072" stroke="black" points="2586.88,-252 2437.12,-252 2437.12,-216 2586.88,-216 2586.88,-252"/>
<text text-anchor="middle" x="2512" y="-229.8" font-family="Times,serif" font-size="14.00">IslandFormComponent </text>
</g>
<!-- SharedModule&#45;&gt;IslandFormComponent  -->
<g id="edge24" class="edge">
<title>SharedModule&#45;&gt;IslandFormComponent </title>
<path fill="none" stroke="black" stroke-dasharray="5,2" d="M1644.48,-176C1832.45,-176 2491.62,-176 2491.62,-176 2491.62,-176 2491.62,-205.97 2491.62,-205.97"/>
<polygon fill="black" stroke="black" points="2488.13,-205.97 2491.62,-215.97 2495.13,-205.97 2488.13,-205.97"/>
</g>
<!-- LatestThreePipe  -->
<g id="node23" class="node">
<title>LatestThreePipe </title>
<polygon fill="#fb8072" stroke="black" points="2419.74,-252 2308.26,-252 2308.26,-216 2419.74,-216 2419.74,-252"/>
<text text-anchor="middle" x="2364" y="-229.8" font-family="Times,serif" font-size="14.00">LatestThreePipe </text>
</g>
<!-- SharedModule&#45;&gt;LatestThreePipe  -->
<g id="edge25" class="edge">
<title>SharedModule&#45;&gt;LatestThreePipe </title>
<path fill="none" stroke="black" stroke-dasharray="5,2" d="M1644.22,-178C1811.1,-178 2345.12,-178 2345.12,-178 2345.12,-178 2345.12,-205.97 2345.12,-205.97"/>
<polygon fill="black" stroke="black" points="2341.63,-205.97 2345.12,-215.97 2348.63,-205.97 2341.63,-205.97"/>
</g>
<!-- LoanCompletedPipe  -->
<g id="node24" class="node">
<title>LoanCompletedPipe </title>
<polygon fill="#fb8072" stroke="black" points="2290.09,-252 2155.91,-252 2155.91,-216 2290.09,-216 2290.09,-252"/>
<text text-anchor="middle" x="2223" y="-229.8" font-family="Times,serif" font-size="14.00">LoanCompletedPipe </text>
</g>
<!-- SharedModule&#45;&gt;LoanCompletedPipe  -->
<g id="edge26" class="edge">
<title>SharedModule&#45;&gt;LoanCompletedPipe </title>
<path fill="none" stroke="black" stroke-dasharray="5,2" d="M1644.24,-180C1789.49,-180 2206.12,-180 2206.12,-180 2206.12,-180 2206.12,-205.72 2206.12,-205.72"/>
<polygon fill="black" stroke="black" points="2202.63,-205.72 2206.12,-215.72 2209.63,-205.72 2202.63,-205.72"/>
</g>
<!-- LoanComponent  -->
<g id="node25" class="node">
<title>LoanComponent </title>
<polygon fill="#fb8072" stroke="black" points="2137.6,-252 2024.4,-252 2024.4,-216 2137.6,-216 2137.6,-252"/>
<text text-anchor="middle" x="2081" y="-229.8" font-family="Times,serif" font-size="14.00">LoanComponent </text>
</g>
<!-- SharedModule&#45;&gt;LoanComponent  -->
<g id="edge27" class="edge">
<title>SharedModule&#45;&gt;LoanComponent </title>
<path fill="none" stroke="black" stroke-dasharray="5,2" d="M1644.48,-182C1765.31,-182 2065.62,-182 2065.62,-182 2065.62,-182 2065.62,-205.81 2065.62,-205.81"/>
<polygon fill="black" stroke="black" points="2062.13,-205.81 2065.62,-215.81 2069.13,-205.81 2062.13,-205.81"/>
</g>
<!-- LoanFormComponent  -->
<g id="node26" class="node">
<title>LoanFormComponent </title>
<polygon fill="#fb8072" stroke="black" points="2005.93,-252 1862.07,-252 1862.07,-216 2005.93,-216 2005.93,-252"/>
<text text-anchor="middle" x="1934" y="-229.8" font-family="Times,serif" font-size="14.00">LoanFormComponent </text>
</g>
<!-- SharedModule&#45;&gt;LoanFormComponent  -->
<g id="edge28" class="edge">
<title>SharedModule&#45;&gt;LoanFormComponent </title>
<path fill="none" stroke="black" stroke-dasharray="5,2" d="M1644.46,-184C1735.55,-184 1920.62,-184 1920.62,-184 1920.62,-184 1920.62,-205.95 1920.62,-205.95"/>
<polygon fill="black" stroke="black" points="1917.13,-205.95 1920.62,-215.95 1924.13,-205.95 1917.13,-205.95"/>
</g>
<!-- LoanItemComponent  -->
<g id="node27" class="node">
<title>LoanItemComponent </title>
<polygon fill="#fb8072" stroke="black" points="1843.76,-252 1704.24,-252 1704.24,-216 1843.76,-216 1843.76,-252"/>
<text text-anchor="middle" x="1774" y="-229.8" font-family="Times,serif" font-size="14.00">LoanItemComponent </text>
</g>
<!-- SharedModule&#45;&gt;LoanItemComponent  -->
<g id="edge29" class="edge">
<title>SharedModule&#45;&gt;LoanItemComponent </title>
<path fill="none" stroke="black" stroke-dasharray="5,2" d="M1644.39,-186C1693.83,-186 1762.62,-186 1762.62,-186 1762.62,-186 1762.62,-205.85 1762.62,-205.85"/>
<polygon fill="black" stroke="black" points="1759.13,-205.85 1762.62,-215.85 1766.13,-205.85 1759.13,-205.85"/>
</g>
<!-- LoginFormComponent  -->
<g id="node28" class="node">
<title>LoginFormComponent </title>
<polygon fill="#fb8072" stroke="black" points="1686.11,-252 1537.89,-252 1537.89,-216 1686.11,-216 1686.11,-252"/>
<text text-anchor="middle" x="1612" y="-229.8" font-family="Times,serif" font-size="14.00">LoginFormComponent </text>
</g>
<!-- SharedModule&#45;&gt;LoginFormComponent  -->
<g id="edge30" class="edge">
<title>SharedModule&#45;&gt;LoginFormComponent </title>
<path fill="none" stroke="black" stroke-dasharray="5,2" d="M1595,-187.11C1595,-187.11 1595,-205.99 1595,-205.99"/>
<polygon fill="black" stroke="black" points="1591.5,-205.99 1595,-215.99 1598.5,-205.99 1591.5,-205.99"/>
</g>
<!-- PictureSelectableComponent  -->
<g id="node29" class="node">
<title>PictureSelectableComponent </title>
<polygon fill="#fb8072" stroke="black" points="1520.01,-252 1337.99,-252 1337.99,-216 1520.01,-216 1520.01,-252"/>
<text text-anchor="middle" x="1429" y="-229.8" font-family="Times,serif" font-size="14.00">PictureSelectableComponent </text>
</g>
<!-- SharedModule&#45;&gt;PictureSelectableComponent  -->
<g id="edge31" class="edge">
<title>SharedModule&#45;&gt;PictureSelectableComponent </title>
<path fill="none" stroke="black" stroke-dasharray="5,2" d="M1545.36,-186C1527.71,-186 1512.13,-186 1512.13,-186 1512.13,-186 1512.13,-205.85 1512.13,-205.85"/>
<polygon fill="black" stroke="black" points="1508.63,-205.85 1512.13,-215.85 1515.63,-205.85 1508.63,-205.85"/>
</g>
<!-- ProgressDirective  -->
<g id="node30" class="node">
<title>ProgressDirective </title>
<polygon fill="#fb8072" stroke="black" points="1319.79,-252 1200.21,-252 1200.21,-216 1319.79,-216 1319.79,-252"/>
<text text-anchor="middle" x="1260" y="-229.8" font-family="Times,serif" font-size="14.00">ProgressDirective </text>
</g>
<!-- SharedModule&#45;&gt;ProgressDirective  -->
<g id="edge32" class="edge">
<title>SharedModule&#45;&gt;ProgressDirective </title>
<path fill="none" stroke="black" stroke-dasharray="5,2" d="M1545.74,-184C1465.15,-184 1314.02,-184 1314.02,-184 1314.02,-184 1314.02,-205.95 1314.02,-205.95"/>
<polygon fill="black" stroke="black" points="1310.52,-205.95 1314.02,-215.95 1317.52,-205.95 1310.52,-205.95"/>
</g>
<!-- RegisterFormComponent  -->
<g id="node31" class="node">
<title>RegisterFormComponent </title>
<polygon fill="#fb8072" stroke="black" points="1181.82,-252 1020.18,-252 1020.18,-216 1181.82,-216 1181.82,-252"/>
<text text-anchor="middle" x="1101" y="-229.8" font-family="Times,serif" font-size="14.00">RegisterFormComponent </text>
</g>
<!-- SharedModule&#45;&gt;RegisterFormComponent  -->
<g id="edge33" class="edge">
<title>SharedModule&#45;&gt;RegisterFormComponent </title>
<path fill="none" stroke="black" stroke-dasharray="5,2" d="M1545.53,-182C1435.08,-182 1178.03,-182 1178.03,-182 1178.03,-182 1178.03,-205.81 1178.03,-205.81"/>
<polygon fill="black" stroke="black" points="1174.53,-205.81 1178.03,-215.81 1181.53,-205.81 1174.53,-205.81"/>
</g>
<!-- UserCardComponent  -->
<g id="node32" class="node">
<title>UserCardComponent </title>
<polygon fill="#fb8072" stroke="black" points="1002.47,-252 863.53,-252 863.53,-216 1002.47,-216 1002.47,-252"/>
<text text-anchor="middle" x="933" y="-229.8" font-family="Times,serif" font-size="14.00">UserCardComponent </text>
</g>
<!-- SharedModule&#45;&gt;UserCardComponent  -->
<g id="edge34" class="edge">
<title>SharedModule&#45;&gt;UserCardComponent </title>
<path fill="none" stroke="black" stroke-dasharray="5,2" d="M1545.68,-180C1395.33,-180 952.91,-180 952.91,-180 952.91,-180 952.91,-205.72 952.91,-205.72"/>
<polygon fill="black" stroke="black" points="949.41,-205.72 952.91,-215.72 956.41,-205.72 949.41,-205.72"/>
</g>
<!-- UserFormComponent  -->
<g id="node33" class="node">
<title>UserFormComponent </title>
<polygon fill="#fb8072" stroke="black" points="845.59,-252 704.41,-252 704.41,-216 845.59,-216 845.59,-252"/>
<text text-anchor="middle" x="775" y="-229.8" font-family="Times,serif" font-size="14.00">UserFormComponent </text>
</g>
<!-- SharedModule&#45;&gt;UserFormComponent  -->
<g id="edge35" class="edge">
<title>SharedModule&#45;&gt;UserFormComponent </title>
<path fill="none" stroke="black" stroke-dasharray="5,2" d="M1545.72,-178C1365.41,-178 751.98,-178 751.98,-178 751.98,-178 751.98,-205.97 751.98,-205.97"/>
<polygon fill="black" stroke="black" points="748.48,-205.97 751.98,-215.97 755.48,-205.97 748.48,-205.97"/>
</g>
<!-- UserListComponent  -->
<g id="node34" class="node">
<title>UserListComponent </title>
<polygon fill="#fb8072" stroke="black" points="686.54,-252 553.46,-252 553.46,-216 686.54,-216 686.54,-252"/>
<text text-anchor="middle" x="620" y="-229.8" font-family="Times,serif" font-size="14.00">UserListComponent </text>
</g>
<!-- SharedModule&#45;&gt;UserListComponent  -->
<g id="edge36" class="edge">
<title>SharedModule&#45;&gt;UserListComponent </title>
<path fill="none" stroke="black" stroke-dasharray="5,2" d="M1545.71,-177C1345.14,-177 600.99,-177 600.99,-177 600.99,-177 600.99,-205.96 600.99,-205.96"/>
<polygon fill="black" stroke="black" points="597.49,-205.96 600.99,-215.96 604.49,-205.96 597.49,-205.96"/>
</g>
<!-- VillagerComponent  -->
<g id="node35" class="node">
<title>VillagerComponent </title>
<polygon fill="#fb8072" stroke="black" points="535.2,-252 404.8,-252 404.8,-216 535.2,-216 535.2,-252"/>
<text text-anchor="middle" x="470" y="-229.8" font-family="Times,serif" font-size="14.00">VillagerComponent </text>
</g>
<!-- SharedModule&#45;&gt;VillagerComponent  -->
<g id="edge37" class="edge">
<title>SharedModule&#45;&gt;VillagerComponent </title>
<path fill="none" stroke="black" stroke-dasharray="5,2" d="M1545.61,-175C1326.62,-175 454.05,-175 454.05,-175 454.05,-175 454.05,-205.98 454.05,-205.98"/>
<polygon fill="black" stroke="black" points="450.55,-205.98 454.05,-215.98 457.55,-205.98 450.55,-205.98"/>
</g>
<!-- VillagerItemComponent  -->
<g id="node36" class="node">
<title>VillagerItemComponent </title>
<polygon fill="#fb8072" stroke="black" points="386.36,-252 229.64,-252 229.64,-216 386.36,-216 386.36,-252"/>
<text text-anchor="middle" x="308" y="-229.8" font-family="Times,serif" font-size="14.00">VillagerItemComponent </text>
</g>
<!-- SharedModule&#45;&gt;VillagerItemComponent  -->
<g id="edge38" class="edge">
<title>SharedModule&#45;&gt;VillagerItemComponent </title>
<path fill="none" stroke="black" stroke-dasharray="5,2" d="M1545.58,-173C1310.23,-173 314.38,-173 314.38,-173 314.38,-173 314.38,-205.7 314.38,-205.7"/>
<polygon fill="black" stroke="black" points="310.88,-205.7 314.38,-215.7 317.88,-205.7 310.88,-205.7"/>
</g>
<!-- VillagerSelectableComponent  -->
<g id="node37" class="node">
<title>VillagerSelectableComponent </title>
<polygon fill="#fb8072" stroke="black" points="212.23,-252 23.77,-252 23.77,-216 212.23,-216 212.23,-252"/>
<text text-anchor="middle" x="118" y="-229.8" font-family="Times,serif" font-size="14.00">VillagerSelectableComponent </text>
</g>
<!-- SharedModule&#45;&gt;VillagerSelectableComponent  -->
<g id="edge39" class="edge">
<title>SharedModule&#45;&gt;VillagerSelectableComponent </title>
<path fill="none" stroke="black" stroke-dasharray="5,2" d="M1545.7,-171C1289.93,-171 125.88,-171 125.88,-171 125.88,-171 125.88,-205.78 125.88,-205.78"/>
<polygon fill="black" stroke="black" points="122.38,-205.78 125.88,-215.78 129.38,-205.78 122.38,-205.78"/>
</g>
</g>
</svg>
