<?xml version="1.0" encoding="UTF-8" standalone="no"?>
<!DOCTYPE svg PUBLIC "-//W3C//DTD SVG 1.1//EN"
 "http://www.w3.org/Graphics/SVG/1.1/DTD/svg11.dtd">
<!-- Generated by graphviz version 2.47.0 (20210316.0004)
 -->
<!-- Title: dependencies Pages: 1 -->
<svg width="504pt" height="211pt"
 viewBox="0.00 0.00 504.00 211.00" xmlns="http://www.w3.org/2000/svg" xmlns:xlink="http://www.w3.org/1999/xlink">
<g id="graph0" class="graph" transform="scale(1 1) rotate(0) translate(4 207)">
<title>dependencies</title>
<polygon fill="white" stroke="transparent" points="-4,4 -4,-207 500,-207 500,4 -4,4"/>
<text text-anchor="start" x="227.01" y="-42.4" font-family="Times-12" font-weight="bold" font-size="14.00">Legend</text>
<polygon fill="#ffffb3" stroke="transparent" points="14,-10 14,-30 34,-30 34,-10 14,-10"/>
<text text-anchor="start" x="37.63" y="-15.4" font-family="Times-12" font-size="14.00"> &#160;Declarations</text>
<polygon fill="#8dd3c7" stroke="transparent" points="127,-10 127,-30 147,-30 147,-10 127,-10"/>
<text text-anchor="start" x="150.73" y="-15.4" font-family="Times-12" font-size="14.00"> &#160;Module</text>
<polygon fill="#80b1d3" stroke="transparent" points="213,-10 213,-30 233,-30 233,-10 213,-10"/>
<text text-anchor="start" x="236.78" y="-15.4" font-family="Times-12" font-size="14.00"> &#160;Bootstrap</text>
<polygon fill="#fdb462" stroke="transparent" points="310,-10 310,-30 330,-30 330,-10 310,-10"/>
<text text-anchor="start" x="333.67" y="-15.4" font-family="Times-12" font-size="14.00"> &#160;Providers</text>
<polygon fill="#fb8072" stroke="transparent" points="406,-10 406,-30 426,-30 426,-10 406,-10"/>
<text text-anchor="start" x="429.73" y="-15.4" font-family="Times-12" font-size="14.00"> &#160;Exports</text>
<g id="clust1" class="cluster">
<title>cluster_AdminPageModule</title>
<polygon fill="none" stroke="black" stroke-dasharray="1,5" points="35.5,-70 35.5,-195 460.5,-195 460.5,-70 35.5,-70"/>
</g>
<g id="clust4" class="cluster">
<title>cluster_AdminPageModule_imports</title>
<polygon fill="none" stroke="black" points="149.5,-78 149.5,-130 452.5,-130 452.5,-78 149.5,-78"/>
</g>
<g id="clust2" class="cluster">
<title>cluster_AdminPageModule_declarations</title>
<polygon fill="none" stroke="black" points="43.5,-78 43.5,-130 141.5,-130 141.5,-78 43.5,-78"/>
</g>
<!-- AdminPage -->
<g id="node1" class="node">
<title>AdminPage</title>
<polygon fill="#ffffb3" stroke="black" points="133.6,-122 51.4,-122 51.4,-86 133.6,-86 133.6,-122"/>
<text text-anchor="middle" x="92.5" y="-99.8" font-family="Times,serif" font-size="14.00">AdminPage</text>
</g>
<!-- AdminPageModule -->
<g id="node2" class="node">
<title>AdminPageModule</title>
<polygon fill="#8dd3c7" stroke="black" points="269.15,-187 266.15,-191 245.15,-191 242.15,-187 143.85,-187 143.85,-151 269.15,-151 269.15,-187"/>
<text text-anchor="middle" x="206.5" y="-164.8" font-family="Times,serif" font-size="14.00">AdminPageModule</text>
</g>
<!-- AdminPage&#45;&gt;AdminPageModule -->
<g id="edge1" class="edge">
<title>AdminPage&#45;&gt;AdminPageModule</title>
<path fill="none" stroke="black" d="M133.71,-104C143.16,-104 150.48,-104 150.48,-104 150.48,-104 150.48,-140.89 150.48,-140.89"/>
<polygon fill="black" stroke="black" points="146.98,-140.89 150.48,-150.89 153.98,-140.89 146.98,-140.89"/>
</g>
<!-- AdminPageRoutingModule -->
<g id="node3" class="node">
<title>AdminPageRoutingModule</title>
<polygon fill="#8dd3c7" stroke="black" points="444.77,-122 441.77,-126 420.77,-126 417.77,-122 274.23,-122 274.23,-86 444.77,-86 444.77,-122"/>
<text text-anchor="middle" x="359.5" y="-99.8" font-family="Times,serif" font-size="14.00">AdminPageRoutingModule</text>
</g>
<!-- AdminPageRoutingModule&#45;&gt;AdminPageModule -->
<g id="edge2" class="edge">
<title>AdminPageRoutingModule&#45;&gt;AdminPageModule</title>
<path fill="none" stroke="black" d="M274.02,-104C266.99,-104 262.52,-104 262.52,-104 262.52,-104 262.52,-140.89 262.52,-140.89"/>
<polygon fill="black" stroke="black" points="259.02,-140.89 262.52,-150.89 266.02,-140.89 259.02,-140.89"/>
</g>
<!-- SharedModule -->
<g id="node4" class="node">
<title>SharedModule</title>
<polygon fill="#8dd3c7" stroke="black" points="255.92,-122 252.92,-126 231.92,-126 228.92,-122 157.08,-122 157.08,-86 255.92,-86 255.92,-122"/>
<text text-anchor="middle" x="206.5" y="-99.8" font-family="Times,serif" font-size="14.00">SharedModule</text>
</g>
<!-- SharedModule&#45;&gt;AdminPageModule -->
<g id="edge3" class="edge">
<title>SharedModule&#45;&gt;AdminPageModule</title>
<path fill="none" stroke="black" d="M206.5,-122.11C206.5,-122.11 206.5,-140.99 206.5,-140.99"/>
<polygon fill="black" stroke="black" points="203,-140.99 206.5,-150.99 210,-140.99 203,-140.99"/>
</g>
</g>
</svg>
