<?xml version="1.0" encoding="UTF-8" standalone="no"?>
<!DOCTYPE svg PUBLIC "-//W3C//DTD SVG 1.1//EN"
 "http://www.w3.org/Graphics/SVG/1.1/DTD/svg11.dtd">
<!-- Generated by graphviz version 2.47.0 (20210316.0004)
 -->
<!-- Title: dependencies Pages: 1 -->
<svg width="504pt" height="211pt"
 viewBox="0.00 0.00 504.00 211.00" xmlns="http://www.w3.org/2000/svg" xmlns:xlink="http://www.w3.org/1999/xlink">
<g id="graph0" class="graph" transform="scale(1 1) rotate(0) translate(4 207)">
<title>dependencies</title>
<polygon fill="white" stroke="transparent" points="-4,4 -4,-207 500,-207 500,4 -4,4"/>
<text text-anchor="start" x="227.01" y="-42.4" font-family="Times-12" font-weight="bold" font-size="14.00">Legend</text>
<polygon fill="#ffffb3" stroke="transparent" points="14,-10 14,-30 34,-30 34,-10 14,-10"/>
<text text-anchor="start" x="37.63" y="-15.4" font-family="Times-12" font-size="14.00"> &#160;Declarations</text>
<polygon fill="#8dd3c7" stroke="transparent" points="127,-10 127,-30 147,-30 147,-10 127,-10"/>
<text text-anchor="start" x="150.73" y="-15.4" font-family="Times-12" font-size="14.00"> &#160;Module</text>
<polygon fill="#80b1d3" stroke="transparent" points="213,-10 213,-30 233,-30 233,-10 213,-10"/>
<text text-anchor="start" x="236.78" y="-15.4" font-family="Times-12" font-size="14.00"> &#160;Bootstrap</text>
<polygon fill="#fdb462" stroke="transparent" points="310,-10 310,-30 330,-30 330,-10 310,-10"/>
<text text-anchor="start" x="333.67" y="-15.4" font-family="Times-12" font-size="14.00"> &#160;Providers</text>
<polygon fill="#fb8072" stroke="transparent" points="406,-10 406,-30 426,-30 426,-10 406,-10"/>
<text text-anchor="start" x="429.73" y="-15.4" font-family="Times-12" font-size="14.00"> &#160;Exports</text>
<g id="clust1" class="cluster">
<title>cluster_VillagersPageModule</title>
<polygon fill="none" stroke="black" stroke-dasharray="1,5" points="23,-70 23,-195 473,-195 473,-70 23,-70"/>
</g>
<g id="clust2" class="cluster">
<title>cluster_VillagersPageModule_declarations</title>
<polygon fill="none" stroke="black" points="355,-78 355,-130 465,-130 465,-78 355,-78"/>
</g>
<g id="clust4" class="cluster">
<title>cluster_VillagersPageModule_imports</title>
<polygon fill="none" stroke="black" points="31,-78 31,-130 347,-130 347,-78 31,-78"/>
</g>
<!-- VillagersPage -->
<g id="node1" class="node">
<title>VillagersPage</title>
<polygon fill="#ffffb3" stroke="black" points="457.03,-122 362.97,-122 362.97,-86 457.03,-86 457.03,-122"/>
<text text-anchor="middle" x="410" y="-99.8" font-family="Times,serif" font-size="14.00">VillagersPage</text>
</g>
<!-- VillagersPageModule -->
<g id="node2" class="node">
<title>VillagersPageModule</title>
<polygon fill="#8dd3c7" stroke="black" points="359.07,-187 356.07,-191 335.07,-191 332.07,-187 220.93,-187 220.93,-151 359.07,-151 359.07,-187"/>
<text text-anchor="middle" x="290" y="-164.8" font-family="Times,serif" font-size="14.00">VillagersPageModule</text>
</g>
<!-- VillagersPage&#45;&gt;VillagersPageModule -->
<g id="edge1" class="edge">
<title>VillagersPage&#45;&gt;VillagersPageModule</title>
<path fill="none" stroke="black" d="M362.94,-104C354.92,-104 349.12,-104 349.12,-104 349.12,-104 349.12,-140.89 349.12,-140.89"/>
<polygon fill="black" stroke="black" points="345.62,-140.89 349.12,-150.89 352.62,-140.89 345.62,-140.89"/>
</g>
<!-- SharedModule -->
<g id="node3" class="node">
<title>SharedModule</title>
<polygon fill="#8dd3c7" stroke="black" points="339.42,-122 336.42,-126 315.42,-126 312.42,-122 240.58,-122 240.58,-86 339.42,-86 339.42,-122"/>
<text text-anchor="middle" x="290" y="-99.8" font-family="Times,serif" font-size="14.00">SharedModule</text>
</g>
<!-- SharedModule&#45;&gt;VillagersPageModule -->
<g id="edge2" class="edge">
<title>SharedModule&#45;&gt;VillagersPageModule</title>
<path fill="none" stroke="black" d="M290,-122.11C290,-122.11 290,-140.99 290,-140.99"/>
<polygon fill="black" stroke="black" points="286.5,-140.99 290,-150.99 293.5,-140.99 286.5,-140.99"/>
</g>
<!-- VillagersPageRoutingModule -->
<g id="node4" class="node">
<title>VillagersPageRoutingModule</title>
<polygon fill="#8dd3c7" stroke="black" points="222.69,-122 219.69,-126 198.69,-126 195.69,-122 39.31,-122 39.31,-86 222.69,-86 222.69,-122"/>
<text text-anchor="middle" x="131" y="-99.8" font-family="Times,serif" font-size="14.00">VillagersPageRoutingModule</text>
</g>
<!-- VillagersPageRoutingModule&#45;&gt;VillagersPageModule -->
<g id="edge3" class="edge">
<title>VillagersPageRoutingModule&#45;&gt;VillagersPageModule</title>
<path fill="none" stroke="black" d="M222.76,-104C228.3,-104 231.69,-104 231.69,-104 231.69,-104 231.69,-140.89 231.69,-140.89"/>
<polygon fill="black" stroke="black" points="228.19,-140.89 231.69,-150.89 235.19,-140.89 228.19,-140.89"/>
</g>
</g>
</svg>
